<?xml version="1.0" encoding="UTF-8"?>
<svg version="1.1" xmlns="http://www.w3.org/2000/svg" width="32" height="32">
<path d="M0 0 C0.66 0.33 1.32 0.66 2 1 C1.67 1.99 1.34 2.98 1 4 C0.67 4 0.34 4 0 4 C0.33 4.66 0.66 5.32 1 6 C1.99 6 2.98 6 4 6 C3.67 8.31 3.34 10.62 3 13 C3.99 13 4.98 13 6 13 C5.67 13.99 5.34 14.98 5 16 C4.67 16 4.34 16 4 16 C4 17.65 4 19.3 4 21 C0.04 21 -3.92 21 -8 21 C-8 21.66 -8 22.32 -8 23 C-3.38 22.67 1.24 22.34 6 22 C6 22.99 6 23.98 6 25 C4.68 25 3.36 25 2 25 C1.34 27.31 0.68 29.62 0 32 C-1.32 32 -2.64 32 -4 32 C-4.309375 31.0409375 -4.309375 31.0409375 -4.625 30.0625 C-5.89538209 27.65074923 -5.89538209 27.65074923 -9.125 27.25 C-10.07375 27.1675 -11.0225 27.085 -12 27 C-12 27.99 -12 28.98 -12 30 C-10.02 29.67 -8.04 29.34 -6 29 C-6.33 29.99 -6.66 30.98 -7 32 C-10.3 32 -13.6 32 -17 32 C-17 31.01 -17 30.02 -17 29 C-17.99 29 -18.98 29 -20 29 C-20 29.99 -20 30.98 -20 32 C-20.66 32 -21.32 32 -22 32 C-22.33 30.02 -22.66 28.04 -23 26 C-23.99 25.67 -24.98 25.34 -26 25 C-26 24.34 -26 23.68 -26 23 C-25.34 23 -24.68 23 -24 23 C-24.33 22.443125 -24.66 21.88625 -25 21.3125 C-26.20817034 18.51860608 -26.51454498 17.01376343 -26 14 C-23.8125 11.1875 -23.8125 11.1875 -21 9 C-18.1875 8.6875 -18.1875 8.6875 -16 9 C-15.938125 8.2575 -15.87625 7.515 -15.8125 6.75 C-13.5350981 -0.9581295 -6.81551043 -0.73583387 0 0 Z M-7 2 C-10.5868415 4.47051729 -10.5868415 4.47051729 -13 8 C-13.039992 9.99960012 -13.04346799 12.00047242 -13 14 C-13.556875 13.649375 -14.11375 13.29875 -14.6875 12.9375 C-17.57168632 11.76823527 -19.07286212 12.05065798 -22 13 C-22.33 13.66 -22.66 14.32 -23 15 C-18.71 15.33 -14.42 15.66 -10 16 C-10.33 14.68 -10.66 13.36 -11 12 C-10.34 11.67 -9.68 11.34 -9 11 C-9.33 9.35 -9.66 7.7 -10 6 C-9.01 6 -8.02 6 -7 6 C-7 5.34 -7 4.68 -7 4 C-6.01 3.67 -5.02 3.34 -4 3 C-4.99 2.67 -5.98 2.34 -7 2 Z M-22 17 C-21 20 -21 20 -21 20 Z M-19 17 C-18 21 -18 21 -18 21 Z M-14 17 C-13 19 -13 19 -13 19 Z M-8 17 C-7 19 -7 19 -7 19 Z " fill="#212022" transform="translate(26,0)"/>
<path d="M0 0 C3.875 1.75 3.875 1.75 5 4 C5.99 4 6.98 4 8 4 C7.67 5.98 7.34 7.96 7 10 C6.34 10 5.68 10 5 10 C5 10.66 5 11.32 5 12 C3.35 11.67 1.7 11.34 0 11 C0 11.66 0 12.32 0 13 C-1.98 13 -3.96 13 -6 13 C-6 10 -6 7 -6 4 C-5.01 4 -4.02 4 -3 4 C-3 3.34 -3 2.68 -3 2 C-2.01 1.34 -1.02 0.68 0 0 Z " fill="#CE0A04" transform="translate(22,2)"/>
<path d="M0 0 C7.92 0 15.84 0 24 0 C23.34 2.31 22.68 4.62 22 7 C20.68 7 19.36 7 18 7 C17.79375 6.360625 17.5875 5.72125 17.375 5.0625 C16.10461791 2.65074923 16.10461791 2.65074923 12.875 2.25 C11.92625 2.1675 10.9775 2.085 10 2 C10 2.99 10 3.98 10 5 C11.98 4.67 13.96 4.34 16 4 C15.67 4.99 15.34 5.98 15 7 C11.7 7 8.4 7 5 7 C5 6.01 5 5.02 5 4 C4.01 4 3.02 4 2 4 C2 4.99 2 5.98 2 7 C1.34 7 0.68 7 0 7 C0 4.69 0 2.38 0 0 Z " fill="#211E1F" transform="translate(4,25)"/>
<path d="M0 0 C0.66 0.33 1.32 0.66 2 1 C1.67 1.99 1.34 2.98 1 4 C0.34 3.67 -0.32 3.34 -1 3 C-5.03366277 2.4621783 -6.51619826 2.63446091 -9.8125 5.125 C-12.17995652 8.23651429 -12.73114094 10.14635352 -13 14 C-15.64 13.67 -18.28 13.34 -21 13 C-21.639375 13.99 -22.27875 14.98 -22.9375 16 C-23.618125 16.99 -24.29875 17.98 -25 19 C-25.33 19 -25.66 19 -26 19 C-26.3125 16.8125 -26.3125 16.8125 -26 14 C-23.8125 11.1875 -23.8125 11.1875 -21 9 C-18.1875 8.6875 -18.1875 8.6875 -16 9 C-15.938125 8.2575 -15.87625 7.515 -15.8125 6.75 C-13.5350981 -0.9581295 -6.81551043 -0.73583387 0 0 Z " fill="#00ACE9" transform="translate(26,0)"/>
<path d="M0 0 C0.33 0.99 0.66 1.98 1 3 C-14.345 3.495 -14.345 3.495 -30 4 C-30.33 3.01 -30.66 2.02 -31 1 C-30.1028125 1.01160156 -29.205625 1.02320312 -28.28125 1.03515625 C-18.81048798 1.10364317 -9.44400891 0.69495992 0 0 Z " fill="#00ADE7" transform="translate(31,22)"/>
<path d="M0 0 C0.66 0.66 1.32 1.32 2 2 C1.34 2 0.68 2 0 2 C0 3.65 0 5.3 0 7 C-1.32 6.67 -2.64 6.34 -4 6 C-3.67 7.65 -3.34 9.3 -3 11 C-2.01 11 -1.02 11 0 11 C0 11.66 0 12.32 0 13 C-1.98 13 -3.96 13 -6 13 C-6 10 -6 7 -6 4 C-5.01 4 -4.02 4 -3 4 C-3 3.34 -3 2.68 -3 2 C-2.01 1.34 -1.02 0.68 0 0 Z " fill="#B71613" transform="translate(22,2)"/>
<path d="M0 0 C2.64 0 5.28 0 8 0 C7.34 2.31 6.68 4.62 6 7 C4.68 7 3.36 7 2 7 C1.34 4.69 0.68 2.38 0 0 Z " fill="#7D1B20" transform="translate(20,25)"/>
<path d="M0 0 C0.66 0 1.32 0 2 0 C2.33 0.66 2.66 1.32 3 2 C3.99 2 4.98 2 6 2 C5.67 3.98 5.34 5.96 5 8 C4.34 8 3.68 8 3 8 C3 8.66 3 9.32 3 10 C2.01 10 1.02 10 0 10 C0 6.7 0 3.4 0 0 Z " fill="#A90E0D" transform="translate(24,4)"/>
<path d="M0 0 C1.65 0.33 3.3 0.66 5 1 C4.67 1.99 4.34 2.98 4 4 C0.625 4.1875 0.625 4.1875 -3 4 C-3.66 3.01 -4.32 2.02 -5 1 C-2.525 1.495 -2.525 1.495 0 2 C0 1.34 0 0.68 0 0 Z " fill="#4D485B" transform="translate(27,12)"/>
<path d="M0 0 C0 0.66 0 1.32 0 2 C0.99 2 1.98 2 3 2 C3 2.66 3 3.32 3 4 C1.02 4 -0.96 4 -3 4 C-3.33 3.01 -3.66 2.02 -4 1 C-2 0 -2 0 0 0 Z " fill="#A91110" transform="translate(19,11)"/>
</svg>
