<?xml version="1.0" standalone="no"?>
<!DOCTYPE svg PUBLIC "-//W3C//DTD SVG 20010904//EN"
 "http://www.w3.org/TR/2001/REC-SVG-20010904/DTD/svg10.dtd">
<svg version="1.0" xmlns="http://www.w3.org/2000/svg"
 width="441.000000pt" height="154.000000pt" viewBox="0 0 441.000000 154.000000"
 preserveAspectRatio="xMidYMid meet">

<g transform="translate(0.000000,154.000000) scale(0.100000,-0.100000)"
fill="#000000" stroke="none">
<path d="M1251 1334 c-1 -7 -12 -22 -26 -35 -13 -13 -25 -34 -25 -46 0 -26 -3
-27 -32 -12 -20 11 -21 10 -14 -31 4 -23 13 -55 21 -71 8 -15 15 -38 15 -51
-1 -21 -4 -20 -35 15 -18 22 -38 36 -43 33 -5 -3 -17 3 -27 14 -10 11 -22 17
-26 14 -5 -3 -23 2 -40 10 l-31 15 7 -27 c4 -15 8 -34 9 -42 1 -8 7 -26 15
-39 11 -20 11 -25 0 -32 -8 -5 -18 -9 -24 -9 -14 -1 37 -40 53 -40 6 0 12 -4
12 -8 0 -5 11 -14 25 -20 33 -15 32 -30 -2 -38 -16 -3 -50 -16 -77 -28 l-49
-21 39 -8 c21 -4 51 -10 67 -14 15 -3 27 -9 27 -14 0 -6 8 -5 19 1 29 15 54
13 47 -5 -8 -22 9 -18 42 10 17 14 33 25 36 25 3 0 6 -70 6 -156 l0 -155 23 3
c21 3 22 6 23 128 2 178 -1 168 30 136 32 -31 44 -33 44 -6 0 22 12 25 41 10
13 -7 19 -7 19 0 0 5 10 10 23 11 23 1 99 27 81 28 -5 1 -19 10 -31 20 -11 11
-31 21 -44 23 -38 5 -28 31 24 57 47 24 60 41 33 41 -24 0 -28 18 -12 47 16
30 37 103 30 103 -3 0 -24 -9 -46 -20 -23 -11 -47 -20 -53 -20 -6 0 -24 -13
-40 -30 -37 -39 -60 -40 -50 -2 17 67 32 162 26 162 -4 0 -16 -7 -27 -15 -27
-20 -34 -19 -34 10 0 13 -6 28 -13 32 -7 4 -18 19 -24 33 -6 14 -12 20 -12 14z"/>
<path d="M2413 910 c-51 -31 -65 -70 -61 -166 3 -75 6 -85 31 -112 63 -66 178
-60 239 13 23 26 22 32 -4 38 -16 5 -31 -1 -48 -17 -34 -32 -64 -40 -105 -26
-45 15 -65 53 -65 124 0 44 5 60 26 85 35 42 97 44 143 5 21 -17 37 -23 51
-19 11 3 20 10 20 14 0 10 -51 56 -77 70 -35 18 -114 13 -150 -9z"/>
<path d="M3048 914 c-33 -17 -48 -43 -48 -80 0 -42 36 -72 114 -95 80 -24 96
-34 96 -59 0 -48 -90 -60 -155 -20 -37 23 -38 23 -52 5 -11 -17 -11 -22 6 -38
28 -29 105 -45 160 -35 60 11 95 45 95 94 0 47 -34 76 -119 99 -35 9 -71 25
-79 34 -14 15 -14 19 1 40 14 21 22 23 69 19 33 -3 62 -12 74 -23 16 -14 22
-15 35 -5 25 20 17 38 -25 60 -47 24 -132 26 -172 4z"/>
<path d="M1910 762 c0 -164 2 -172 41 -172 4 0 10 57 11 127 l3 127 55 -125
c73 -164 77 -164 150 -1 l55 124 3 -127 c3 -124 3 -126 25 -123 22 3 22 6 25
166 l3 163 -41 -3 -41 -3 -51 -123 -51 -123 -52 123 -51 123 -42 3 -42 3 0
-159z"/>
<path d="M2672 898 c3 -20 10 -23 55 -26 l52 -3 3 -137 3 -137 25 0 25 0 3
138 3 137 54 0 c52 0 55 1 55 25 l0 25 -141 0 c-140 0 -140 0 -137 -22z"/>
<path d="M3332 758 c3 -160 3 -163 26 -166 l22 -3 0 165 0 166 -25 0 -25 0 2
-162z"/>
<path d="M3460 761 c0 -136 2 -160 16 -165 20 -8 188 -8 208 0 9 3 16 15 16
25 0 17 -8 19 -90 19 l-90 0 0 50 0 49 68 3 c59 3 67 5 67 23 0 18 -8 20 -67
23 l-68 3 0 39 0 40 90 0 c89 0 90 0 90 25 l0 25 -120 0 -120 0 0 -159z"/>
<path d="M3760 762 c0 -137 2 -161 16 -166 9 -3 20 -4 25 0 5 3 9 57 9 121 0
64 3 113 8 109 4 -4 30 -58 57 -119 67 -150 73 -150 145 11 l55 124 3 -126 c3
-124 3 -126 25 -122 22 3 22 6 25 165 l3 162 -42 -3 -41 -3 -50 -123 -51 -123
-52 123 -51 123 -42 3 -42 3 0 -159z"/>
<path d="M398 775 c-34 -19 -40 -41 -36 -130 2 -57 6 -70 21 -73 15 -3 17 5
17 70 0 87 12 111 55 106 l30 -3 5 -85 c4 -70 8 -85 23 -88 15 -3 17 5 17 68
0 82 11 110 43 110 38 0 47 -19 47 -102 0 -71 2 -78 20 -78 19 0 20 7 20 89 0
86 -1 90 -27 111 -22 17 -36 20 -63 15 -43 -7 -65 -7 -110 0 -22 3 -45 -1 -62
-10z"/>
<path d="M764 780 c-67 -27 -87 -129 -35 -181 23 -22 39 -29 69 -29 53 0 72 8
72 30 0 15 -7 17 -45 12 -57 -6 -85 15 -85 65 0 44 30 73 75 73 57 0 75 -27
75 -110 0 -63 2 -70 20 -70 18 0 20 7 20 70 0 38 -5 80 -11 94 -21 45 -100 68
-155 46z"/>
<path d="M1013 770 c-41 -25 -52 -67 -50 -190 2 -81 4 -95 20 -98 15 -3 17 7
17 98 0 137 18 170 89 170 74 0 91 -114 20 -139 -15 -5 -29 -8 -31 -7 -1 2
-15 6 -30 10 -23 5 -28 3 -28 -13 0 -23 19 -31 74 -31 34 0 48 6 72 31 24 25
29 39 29 80 0 44 -4 54 -33 80 -40 35 -100 39 -149 9z"/>
<path d="M1394 776 c-43 -19 -64 -53 -64 -103 0 -53 31 -91 83 -103 68 -15
147 26 147 77 0 34 -31 29 -55 -10 -27 -43 -74 -49 -110 -13 -31 31 -32 65 -4
100 17 22 28 26 57 24 44 -4 52 -22 15 -37 -43 -18 -77 -47 -69 -59 10 -16
157 58 154 77 -9 43 -101 71 -154 47z"/>
<path d="M371 484 c0 -11 3 -14 6 -6 3 7 2 16 -1 19 -3 4 -6 -2 -5 -13z"/>
<path d="M491 484 c0 -11 3 -14 6 -6 3 7 2 16 -1 19 -3 4 -6 -2 -5 -13z"/>
<path d="M867 330 c-52 -16 -57 -26 -57 -116 0 -79 1 -84 27 -101 29 -19 139
-30 198 -19 36 7 75 36 75 56 0 18 -22 11 -46 -15 -21 -23 -31 -25 -101 -25
-111 0 -123 10 -123 104 0 96 6 101 123 101 91 -1 105 -7 120 -49 3 -8 8 -8
16 0 15 14 6 36 -22 54 -26 16 -169 24 -210 10z"/>
<path d="M440 210 c0 -100 3 -120 15 -120 12 0 15 17 15 93 0 52 3 96 6 100 3
3 27 -10 54 -29 26 -19 54 -34 62 -34 8 0 32 13 54 30 21 16 42 30 46 30 4 0
9 -41 10 -92 2 -62 7 -93 16 -96 9 -3 12 25 12 117 0 141 -2 142 -79 81 -28
-22 -54 -40 -58 -40 -4 0 -33 18 -64 40 -88 62 -89 61 -89 -80z"/>
<path d="M1195 320 c3 -5 31 -10 60 -10 l54 0 3 -120 c2 -72 7 -120 13 -120 6
0 11 48 13 120 l3 120 59 0 c32 0 62 5 65 10 4 6 -43 10 -135 10 -92 0 -139
-4 -135 -10z"/>
<path d="M1223 286 c2 -6 13 -12 25 -14 20 -3 22 -9 22 -82 0 -43 5 -82 10
-85 6 -4 10 30 10 94 l0 100 -35 -1 c-21 -1 -34 -6 -32 -12z"/>
<path d="M1360 199 c0 -64 4 -98 10 -94 6 3 10 42 10 85 0 73 2 79 22 82 38 5
33 28 -6 28 l-36 0 0 -101z"/>
</g>
</svg>
