<?xml version="1.0" standalone="no"?>
<!DOCTYPE svg PUBLIC "-//W3C//DTD SVG 20010904//EN"
 "http://www.w3.org/TR/2001/REC-SVG-20010904/DTD/svg10.dtd">
<svg version="1.0" xmlns="http://www.w3.org/2000/svg"
 width="150.000000pt" height="150.000000pt" viewBox="0 0 150.000000 150.000000"
 preserveAspectRatio="xMidYMid meet">

<g transform="translate(0.000000,150.000000) scale(0.100000,-0.100000)"
fill="#000000" stroke="none">
<path d="M1042 1328 c-7 -7 -12 -16 -12 -21 0 -5 -7 -15 -15 -23 -8 -8 -12
-21 -9 -28 8 -20 -12 -29 -37 -15 -22 11 -22 10 -16 -36 4 -25 14 -56 22 -68
17 -24 20 -67 5 -67 -5 0 -20 16 -32 35 -14 21 -29 33 -37 30 -7 -3 -22 4 -32
16 -10 11 -23 18 -29 14 -5 -3 -24 1 -41 9 l-31 15 7 -27 c4 -15 9 -38 11 -51
1 -13 7 -28 13 -34 18 -18 12 -35 -16 -45 l-28 -10 28 -7 c15 -4 27 -11 27
-16 0 -5 5 -9 11 -9 6 0 26 -12 45 -27 38 -29 32 -43 -18 -43 -16 0 -28 -4
-28 -9 0 -5 -19 -16 -42 -24 l-43 -14 43 -7 c23 -4 42 -12 42 -17 0 -5 11 -7
25 -3 19 5 25 2 25 -10 0 -15 3 -15 34 -2 37 15 48 12 39 -10 -8 -21 6 -17 43
11 18 14 35 25 38 25 3 0 7 -71 8 -157 3 -155 3 -158 26 -161 22 -3 22 -3 22
147 0 83 2 151 4 151 3 0 17 -11 32 -25 33 -31 48 -32 41 -4 -5 18 -2 20 16
16 12 -2 30 -8 40 -12 12 -5 17 -3 15 6 -2 8 9 14 27 15 17 2 45 7 64 11 l35
9 -68 33 c-37 18 -66 37 -64 43 2 6 27 22 56 37 50 25 65 41 40 41 -7 0 -19 4
-27 9 -11 7 -10 14 7 39 12 16 19 31 17 34 -3 3 1 23 9 46 l15 40 -35 -20
c-19 -11 -34 -17 -34 -12 0 4 -8 0 -18 -9 -10 -10 -22 -14 -25 -10 -4 4 -22
-10 -41 -30 -19 -20 -39 -37 -45 -37 -13 0 -14 30 -2 64 6 13 13 48 16 77 3
29 9 57 12 63 4 6 -9 1 -29 -11 -40 -23 -48 -21 -48 14 0 13 -4 23 -10 23 -5
0 -12 11 -16 25 -7 28 -14 31 -32 13z"/>
<path d="M156 749 c-25 -19 -26 -25 -26 -115 0 -87 1 -94 20 -94 18 0 20 7 20
83 0 87 8 107 45 107 37 0 45 -20 45 -107 0 -76 2 -83 20 -83 18 0 20 7 20 74
0 88 19 123 62 113 31 -8 38 -30 38 -119 0 -61 2 -68 20 -68 18 0 20 7 20 84
0 100 -4 112 -41 131 -35 19 -69 19 -95 1 -17 -12 -22 -12 -39 0 -27 20 -78
17 -109 -7z"/>
<path d="M545 760 c-54 -22 -83 -89 -65 -146 16 -49 53 -74 109 -74 50 0 71
13 71 42 0 15 -3 17 -19 8 -28 -15 -73 -12 -99 6 -16 11 -22 25 -22 54 0 66
73 103 128 64 20 -13 22 -24 22 -95 0 -78 0 -79 25 -79 25 0 25 1 25 78 0 86
-11 112 -60 137 -31 16 -83 19 -115 5z"/>
<path d="M792 736 l-37 -34 0 -129 c0 -125 0 -128 23 -131 22 -3 22 -2 22 121
0 116 1 125 23 145 51 48 127 14 127 -57 0 -55 -26 -75 -90 -69 -43 4 -50 3
-50 -13 0 -22 58 -42 96 -33 64 15 106 86 90 150 -4 15 -20 39 -36 55 -24 24
-37 29 -79 29 -44 0 -56 -5 -89 -34z"/>
<path d="M1203 756 c-42 -19 -66 -58 -66 -107 0 -107 137 -157 215 -79 33 34
38 70 8 70 -11 0 -26 -12 -34 -29 -25 -48 -82 -56 -121 -16 -51 50 -13 140 57
133 49 -5 44 -24 -11 -53 -47 -23 -61 -42 -45 -58 8 -7 164 70 164 81 0 5 -13
21 -29 36 -35 33 -92 42 -138 22z"/>
<path d="M263 455 c0 -27 2 -38 4 -22 2 15 2 37 0 50 -2 12 -4 0 -4 -28z"/>
<path d="M360 485 c-7 -9 -11 -17 -9 -20 3 -2 10 5 17 15 14 24 10 26 -8 5z"/>
<path d="M428 490 c6 -8 12 -23 12 -35 0 -12 -6 -27 -12 -35 -11 -12 -10 -12
5 -1 9 7 17 24 17 36 0 12 -8 29 -17 36 -15 11 -16 11 -5 -1z"/>
<path d="M490 466 c0 -19 3 -37 8 -40 4 -2 6 13 4 35 -5 48 -12 51 -12 5z"/>
<path d="M623 455 c0 -27 2 -38 4 -22 2 15 2 37 0 50 -2 12 -4 0 -4 -28z"/>
<path d="M136 475 c-3 -9 -6 -22 -5 -28 0 -7 5 -1 10 12 5 13 8 26 5 28 -2 2
-6 -3 -10 -12z"/>
<path d="M350 436 c0 -2 8 -10 18 -17 15 -13 16 -12 3 4 -13 16 -21 21 -21 13z"/>
<path d="M686 423 c-6 -14 -5 -15 5 -6 7 7 10 15 7 18 -3 3 -9 -2 -12 -12z"/>
<path d="M210 165 c0 -104 2 -125 15 -125 12 0 15 18 15 100 0 55 3 100 8 100
4 0 29 -16 56 -35 27 -19 55 -35 62 -35 7 0 33 16 58 35 26 19 48 35 51 35 3
0 5 -45 5 -100 0 -82 3 -100 15 -100 13 0 15 21 15 125 0 88 -3 125 -12 125
-6 0 -34 -17 -62 -38 -28 -21 -56 -41 -62 -45 -6 -3 -40 14 -74 38 -35 25 -70
45 -77 45 -10 0 -13 -29 -13 -125z"/>
<path d="M615 265 c-22 -21 -25 -33 -25 -98 0 -111 11 -121 135 -125 106 -4
136 0 159 24 20 20 21 44 1 44 -8 0 -15 -4 -15 -9 0 -5 -7 -17 -16 -25 -12
-12 -37 -16 -103 -16 -119 0 -126 6 -126 105 0 98 8 105 123 105 86 0 122 -10
122 -35 0 -8 9 -15 19 -15 14 0 18 5 14 20 -11 40 -41 50 -156 50 -101 0 -109
-2 -132 -25z"/>
<path d="M990 280 c0 -5 28 -10 63 -12 l62 -3 3 -127 c2 -105 5 -128 17 -128
12 0 15 22 15 130 l0 130 65 0 c37 0 65 4 65 10 0 6 -55 10 -145 10 -85 0
-145 -4 -145 -10z"/>
<path d="M1020 240 c0 -5 11 -10 25 -10 25 0 25 -1 25 -84 0 -62 4 -87 15 -96
13 -11 15 0 15 94 l0 106 -40 0 c-22 0 -40 -4 -40 -10z"/>
<path d="M1167 243 c-4 -3 -7 -51 -7 -105 0 -75 3 -99 13 -96 8 3 13 34 15 96
3 90 3 92 27 92 13 0 27 5 30 10 7 11 -67 14 -78 3z"/>
</g>
</svg>
